# Alias OBJ Model File
# Exported from SketchUp, (c) 2000-2012 Trimble Navigation Limited
# File units = meters

mtllib bedRedLamp.mtl

g Mesh1 Group2 Group1 bed2Lamp1 Model

usemtl FrontColor
v 0.18975 0.52223 -0.0597818
vt -14.822 7.5
vn 0 -1 -0
v 0.0116364 0.52223 -0.0597818
vt -7.80968 7.5
v 0.0119499 0.52223 -0.062163
vt -7.82203 7.59375
v 0.0116364 0.52223 -0.0645443
vt -7.80968 7.6875
v 0.18975 0.52223 -0.0645443
vt -14.822 7.6875
f 1/1/1 2/2/1 3/3/1 4/4/1 5/5/1 

v -0.000750114 0.52223 -0.0645443
vt -7.32203 7.6875
v -0.000750114 0.52223 -0.0597818
vt -7.32203 7.5
f 6/6/1 4/4/1 3/3/1 2/2/1 7/7/1 

v -0.0131366 0.52223 -0.0645443
vt -6.83437 7.6875
v -0.0130174 0.52223 -0.06545
vt -6.83906 7.72316
v -0.0117486 0.52223 -0.068513
vt -6.88901 7.84375
v -0.00973037 0.52223 -0.0711433
vt -6.96847 7.9473
v -0.00710011 0.52223 -0.0731615
vt -7.07203 8.02676
v -0.00403712 0.52223 -0.0744303
vt -7.19262 8.07671
v -0.000750114 0.52223 -0.074863
vt -7.32203 8.09375
v 0.00253689 0.52223 -0.0744303
vt -7.45143 8.07671
v 0.00559989 0.52223 -0.0731615
vt -7.57203 8.02676
v 0.00823014 0.52223 -0.0711433
vt -7.67558 7.9473
v 0.0102484 0.52223 -0.068513
vt -7.75504 7.84375
v 0.0115171 0.52223 -0.06545
vt -7.80499 7.72316
f 8/8/1 9/9/1 10/10/1 11/11/1 12/12/1 13/13/1 14/14/1 15/15/1 16/16/1 17/17/1 18/18/1 19/19/1 4/4/1 6/6/1 

vt -8.54976 0
vn -0.965926 3.64103e-19 -0.258819
vt -8.5138 0
vn -0.991445 0 -0.130526
v -0.0131366 0.80163 -0.0645443
vt -8.5138 11
v -0.0130174 0.80163 -0.06545
vt -8.54976 11
f 9/20/2 8/21/3 20/22/3 21/23/2 

vt 6.83437 0
vn 0 0 1
vt 7.32203 0
v -0.000750114 0.80163 -0.0645443
vt 7.32203 11
vt 6.83437 11
f 8/24/4 6/25/4 22/26/4 20/27/4 

v -0.0131366 0.52223 -0.0597818
vt -6.83437 7.5
v -0.0134501 0.52223 -0.062163
vt -6.82203 7.59375
f 7/7/1 23/28/1 24/29/1 8/8/1 6/6/1 

v -0.000750114 0.80163 -0.0597818
v -0.0131366 0.80163 -0.0597818
f 23/24/4 7/25/4 25/26/4 26/27/4 

vt 7.80968 0
v 0.0116364 0.80163 -0.0597818
vt 7.80968 11
f 7/25/4 2/30/4 27/31/4 25/26/4 

vt -8.4552 0
v 0.0115171 0.52223 -0.058876
vt -8.41924 0
vn -0.965926 0 -0.258819
v 0.0115171 0.80163 -0.058876
vt -8.41924 11
vt -8.4552 11
f 2/32/3 28/33/5 29/34/5 27/35/3 

vt -9.88299 0
v 0.0102484 0.52223 -0.055813
vt -9.75246 0
vn -0.866025 0 -0.5
v 0.0102484 0.80163 -0.055813
vt -9.75246 11
vt -9.88299 11
f 28/36/5 30/37/6 31/38/6 29/39/5 

vt -10.5472 0
v 0.00823014 0.52223 -0.0531828
vt -10.4166 0
vn -0.707107 0 -0.707107
v 0.00823014 0.80163 -0.0531828
vt -10.4166 11
vt -10.5472 11
f 30/40/6 32/41/7 33/42/7 31/43/6 

vt -10.497 0
v 0.00559989 0.52223 -0.0511645
vt -10.3665 0
vn -0.5 0 -0.866025
v 0.00559989 0.80163 -0.0511645
vt -10.3665 11
vt -10.497 11
f 32/44/7 34/45/8 35/46/8 33/47/7 

vt -9.73593 0
v 0.00253689 0.52223 -0.0498958
vt -9.60541 0
vn -0.258819 0 -0.965926
v 0.00253689 0.80163 -0.0498958
vt -9.60541 11
vt -9.73593 11
f 34/48/8 36/49/9 37/50/9 35/51/8 

vt -8.31583 0
v -0.000750114 0.52223 -0.049463
vt -8.1853 0
vn -4.33924e-16 0 -1
v -0.000750114 0.80163 -0.049463
vt -8.1853 11
vt -8.31583 11
f 36/52/9 38/53/10 39/54/10 37/55/9 

vt -6.33346 0
v -0.00403712 0.52223 -0.0498958
vt -6.20294 0
vn 0.258819 0 -0.965926
v -0.00403712 0.80163 -0.0498958
vt -6.20294 11
vt -6.33346 11
f 38/56/10 40/57/11 41/58/11 39/59/10 

vt -3.92393 0
v -0.00710011 0.52223 -0.0511645
vt -3.7934 0
vn 0.5 0 -0.866025
v -0.00710011 0.80163 -0.0511645
vt -3.7934 11
vt -3.92393 11
f 40/60/11 42/61/12 43/62/12 41/63/11 

vt -1.25143 0
v -0.00973037 0.52223 -0.0531828
vt -1.12091 0
vn 0.707107 0 -0.707107
v -0.00973037 0.80163 -0.0531828
vt -1.12091 11
vt -1.25143 11
f 42/64/12 44/65/13 45/66/13 43/67/12 

vt 1.5019 0
v -0.0117486 0.52223 -0.055813
vt 1.63242 0
vn 0.866025 0 -0.5
v -0.0117486 0.80163 -0.055813
vt 1.63242 11
vt 1.5019 11
f 44/68/13 46/69/14 47/70/14 45/71/13 

vt 4.14843 0
v -0.0130174 0.52223 -0.058876
vt 4.27896 0
vn 0.965926 0 -0.258819
v -0.0130174 0.80163 -0.058876
vt 4.27896 11
vt 4.14843 11
f 46/72/14 48/73/15 49/74/15 47/75/14 

vt 6.50781 0
vt 6.54377 0
vn 0.991445 0 -0.130526
vt 6.54377 11
vt 6.50781 11
f 48/76/15 23/77/16 26/78/16 49/79/15 

vt -6.83906 7.46434
vt -7.80499 7.46434
vt -7.75504 7.34375
vt -7.67558 7.2402
vt -7.57203 7.16074
vt -7.45143 7.11079
vt -7.32203 7.09375
vt -7.19262 7.11079
vt -7.07203 7.16074
vt -6.96847 7.2402
vt -6.88901 7.34375
f 49/80/1 26/28/1 25/7/1 27/2/1 29/81/1 31/82/1 33/83/1 35/84/1 37/85/1 39/86/1 41/87/1 43/88/1 45/89/1 47/90/1 

v 0.18975 0.80163 -0.0661318
vt 14.822 7.75
vn 3.06196e-18 1 -9.16712e-15
v 0.0112348 0.80163 -0.0661318
vt 7.79387 7.75
v 0.0115171 0.80163 -0.06545
vt 7.80499 7.72316
v 0.0116364 0.80163 -0.0645443
vt 7.80968 7.6875
vt 7.32203 7.6875
vt 6.83437 7.6875
vt 6.83906 7.72316
v -0.012735 0.80163 -0.0661318
vt 6.85018 7.75
v -0.182209 0.80163 -0.0661318
vt 0.177975 7.75
v -0.182209 0.80163 -0.0597818
vt 0.177975 7.5
vt 6.83437 7.5
vt 7.32203 7.5
vt 7.80968 7.5
v 0.18975 0.80163 -0.0597818
vt 14.822 7.5
f 50/91/17 51/92/17 52/93/17 53/94/17 22/95/17 20/96/17 21/97/17 54/98/17 55/99/17 56/100/17 26/101/17 25/102/17 27/103/17 57/104/17 

vt 4.14843 3.09193e-16
vn 0.965926 -1.53378e-17 -0.258819
vt 4.27896 3.09193e-16
vn 0.866025 -1.53378e-17 -0.5
v 0.0102484 0.80163 -0.068513
vt 4.17748 11
vn 0.92388 -3.04132e-17 -0.382683
f 19/105/18 18/106/19 58/74/19 51/107/20 52/75/18 

v 0.00823014 0.80163 -0.0711433
f 18/68/19 17/69/13 59/70/13 58/71/19 

v 0.00559989 0.80163 -0.0731615
f 17/64/13 16/65/12 60/66/12 59/67/13 

v 0.00253689 0.80163 -0.0744303
f 16/60/12 15/61/11 61/62/11 60/63/12 

vn -4.47921e-16 0 -1
v -0.000750114 0.80163 -0.074863
f 15/56/11 14/57/21 62/58/21 61/59/11 

v -0.00403712 0.80163 -0.0744303
f 14/52/21 13/53/9 63/54/9 62/55/21 

v -0.00710011 0.80163 -0.0731615
f 13/48/9 12/49/8 64/50/8 63/51/9 

v -0.00973037 0.80163 -0.0711433
f 12/44/8 11/45/7 65/46/7 64/47/8 

vn -0.866025 3.64103e-19 -0.5
v -0.0117486 0.80163 -0.068513
f 11/40/7 10/41/22 66/42/22 65/43/7 

vt -9.88299 2.42796e-18
vt -9.75246 2.42796e-18
vt -9.78152 11
vn -0.92388 7.21975e-19 -0.382683
f 10/108/22 9/109/2 21/38/2 54/110/23 66/39/22 

vn 0 1 -0
f 51/92/24 54/98/24 21/97/24 20/96/24 22/95/24 53/94/24 52/93/24 

vt 6.88901 7.84375
vt 7.75504 7.84375
vt 7.67558 7.9473
vt 7.57203 8.02676
vt 7.45143 8.07671
vt 7.32203 8.09375
vt 7.19262 8.07671
vt 7.07203 8.02676
vt 6.96847 7.9473
f 66/111/24 54/98/24 51/92/24 58/112/24 59/113/24 60/114/24 61/115/24 62/116/24 63/117/24 64/118/24 65/119/24 

f 6/25/4 4/30/4 53/31/4 22/26/4 

vt 6.60236 0
vt 6.63833 0
vt 6.63833 11
vt 6.60236 11
f 4/120/16 19/121/18 52/122/18 53/123/16 

v -0.182209 0.80163 -0.245761
vt 14.822 11
vn 1 0 -0
vt 7.75 11
vt 7.5 11
v -0.182209 0.80163 0.126198
vt 0.177975 11
v -0.182209 0.52223 0.126198
vt 0.177975 0
v -0.182209 0.52223 -0.0597818
vt 7.5 0
v -0.182209 0.52223 -0.0645443
vt 7.6875 0
v -0.182209 0.52223 -0.245761
vt 14.822 0
f 67/124/25 55/125/25 56/126/25 68/127/25 69/128/25 70/129/25 71/130/25 72/131/25 

vt 0.177975 14.822
f 67/132/24 56/100/24 55/99/24

vt 0.177975 0.177975
f 67/132/24 68/133/24 56/100/24

v -0.18673 0.80163 -0.250282
vt 0 15
f 67/132/24 73/134/24 68/133/24

v 0.19427 0.80163 -0.250282
vt 15 15
f 73/134/24 67/132/24 74/135/24

v 0.18975 0.80163 -0.245761
vt 14.822 14.822
f 74/135/24 67/132/24 75/136/24

v 0.18975 0.52223 -0.245761
f 75/124/4 67/127/4 72/128/4 76/131/4 

vt -0.177975 14.822
v 0.19427 0.52223 -0.250282
vt -15 15
vt -14.822 14.822
f 72/137/1 77/138/1 76/139/1

v -0.18673 0.52223 -0.250282
f 72/137/1 78/134/1 77/138/1

v -0.18673 0.52223 0.130718
vt 0 0
f 78/134/1 72/137/1 79/140/1

vt -0.177975 0.177975
f 69/141/1 79/140/1 72/137/1

v 0.19427 0.52223 0.130718
vt -15 0
f 79/140/1 69/141/1 80/142/1

v 0.18975 0.52223 0.126198
vt -14.822 0.177975
f 80/142/1 69/141/1 81/143/1

vt -0.177975 11
vn 0 0 -1
v 0.18975 0.80163 0.126198
vt -14.822 11
vt -14.822 0
vt -0.177975 0
f 68/144/26 82/145/26 81/146/26 69/147/26 

v 0.19427 0.80163 0.130718
vt 15 0
vt 14.822 0.177975
f 68/133/24 83/148/24 82/149/24

v -0.18673 0.80163 0.130718
f 68/133/24 84/140/24 83/148/24

f 84/140/24 68/133/24 73/134/24

vn -1 0 -0
vt 0 11
vt -15 11
f 78/142/27 79/140/27 84/150/27 73/151/27 

vt 15 11
f 79/140/4 80/148/4 83/152/4 84/150/4 

f 80/140/25 77/148/25 74/152/25 83/150/25 

f 80/142/1 81/143/1 77/138/1

f 1/1/1 77/138/1 81/143/1

f 76/139/1 77/138/1 1/1/1

f 1/1/1 5/5/1 76/139/1

vt -7.5 11
vt -7.75 11
vt -7.6875 0
vt -7.5 0
f 82/144/27 57/153/27 50/154/27 75/145/27 76/146/27 5/155/27 1/156/27 81/147/27 

f 82/149/24 83/148/24 57/104/24

f 57/104/24 83/148/24 75/136/24

f 74/135/24 75/136/24 83/148/24

f 75/136/24 50/91/24 57/104/24

f 77/142/26 78/140/26 73/150/26 74/151/26 

vt -0.177975 7.6875
f 69/141/1 72/137/1 71/157/1

vt -0.177975 7.5
f 69/141/1 71/157/1 70/158/1

f 71/157/1 8/8/1 24/29/1 23/28/1 70/158/1 

g Mesh2 Group1 bed2Lamp1 Model

usemtl Metal_Corrogated_Shiny
v 0.0116625 0.471432 -0.0618634
vt 0.589049 0
vn 1 0 1.39975e-17
v 0.0112298 0.471432 -0.0651504
vt 0.621774 0
v 0.0112298 0.522232 -0.0651504
vt 0.621774 0.5
v 0.0116625 0.522232 -0.0618634
vt 0.589049 0.5
f 85/159/28 86/160/15 87/161/15 88/162/28 

usemtl Color_A11
v 0.0783375 0.471432 -0.141238
vt 10.4357 10.707
vn 3.12639e-15 1 -1.42109e-15
vt 7.79367 7.71136
vt 7.81071 7.58195
f 89/163/29 86/164/29 85/165/29

v 0.00996105 0.471432 -0.0682134
vt 7.74372 7.83195
f 89/163/29 90/166/29 86/164/29

v 0.00794278 0.471432 -0.0708436
vt 7.66427 7.93551
f 89/163/29 91/167/29 90/166/29

v 0.00531252 0.471432 -0.0728619
vt 7.56071 8.01497
f 89/163/29 92/168/29 91/167/29

v 0.00224953 0.471432 -0.0741306
vt 7.44012 8.06492
f 89/163/29 93/169/29 92/168/29

v -0.00103748 0.471432 -0.0745634
vt 7.31071 8.08195
f 89/163/29 94/170/29 93/169/29

v -0.00432448 0.471432 -0.0741306
vt 7.1813 8.06492
f 89/163/29 95/171/29 94/170/29

v -0.00738748 0.471432 -0.0728619
vt 7.06071 8.01497
f 89/163/29 96/172/29 95/171/29

v -0.0100177 0.471432 -0.0708436
vt 6.95716 7.93551
f 89/163/29 97/173/29 96/172/29

v -0.0804125 0.471432 -0.141238
vt 4.18571 10.707
f 98/174/29 97/173/29 89/163/29

v -0.012036 0.471432 -0.0682134
vt 6.8777 7.83195
f 97/173/29 98/174/29 99/175/29

v -0.0133047 0.471432 -0.0651504
vt 6.82775 7.71136
f 99/175/29 98/174/29 100/176/29

v -0.0137375 0.471432 -0.0618634
vt 6.81071 7.58195
f 100/176/29 98/174/29 101/177/29

v -0.0133047 0.471432 -0.0585764
vt 6.82775 7.45254
f 98/174/29 102/178/29 101/177/29

v -0.012036 0.471432 -0.0555134
vt 6.8777 7.33195
f 98/174/29 103/179/29 102/178/29

v -0.0100177 0.471432 -0.0528831
vt 6.95716 7.2284
f 98/174/29 104/180/29 103/179/29

v -0.0804125 0.471432 0.0175116
vt 4.18571 4.45695
f 105/181/29 104/180/29 98/174/29

v 0.0783375 0.471432 0.0175116
vt 10.4357 4.45695
f 104/180/29 105/181/29 106/182/29

usemtl Metal_Corrogated_Shiny
vt 1.15476 0.554285
vn 2.63391e-15 1 -1.40883e-15
v 0.0910375 0.471432 0.0302116
vt 2.84226 0.429285
vt 2.71726 0.554285
f 105/183/30 107/184/30 106/185/30

v -0.0931125 0.471432 0.0302116
vt 1.02976 0.429285
f 105/183/30 108/186/30 107/184/30

v -0.0931125 0.471432 -0.153938
vt 1.02976 2.24179
f 108/186/30 105/183/30 109/187/30

vt 1.15476 2.11679
f 98/188/30 109/187/30 105/183/30

v 0.0910375 0.471432 -0.153938
vt 2.84226 2.24179
f 109/187/30 98/188/30 110/189/30

vt 2.71726 2.11679
f 110/189/30 98/188/30 89/190/30

f 110/189/30 89/190/30 107/184/30

f 106/185/30 107/184/30 89/190/30

usemtl Color_A11
f 89/163/29 85/165/29 106/182/29

v 0.0112298 0.471432 -0.0585764
vt 7.79367 7.45254
f 111/191/29 106/182/29 85/165/29

v 0.00996105 0.471432 -0.0555134
vt 7.74372 7.33195
f 112/192/29 106/182/29 111/191/29

v 0.00794278 0.471432 -0.0528831
vt 7.66427 7.2284
f 113/193/29 106/182/29 112/192/29

v 0.00531252 0.471432 -0.0508648
vt 7.56071 7.14894
f 114/194/29 106/182/29 113/193/29

v 0.00224953 0.471432 -0.0495961
vt 7.44012 7.09899
f 115/195/29 106/182/29 114/194/29

v -0.00103748 0.471432 -0.0491634
vt 7.31071 7.08195
f 116/196/29 106/182/29 115/195/29

v -0.00432448 0.471432 -0.0495961
vt 7.1813 7.09899
f 117/197/29 106/182/29 116/196/29

v -0.00738748 0.471432 -0.0508648
vt 7.06071 7.14894
f 118/198/29 106/182/29 117/197/29

f 104/180/29 106/182/29 118/198/29

usemtl Metal_Corrogated_Shiny
vt 0.294524 -8.88178e-16
vn -0.707107 0 0.707107
vt 0.327249 -8.88178e-16
vn -0.5 0 0.866025
v -0.00738748 0.522232 -0.0508648
vt 0.327249 0.5
v -0.0100177 0.522232 -0.0528831
vt 0.294524 0.5
f 104/199/31 118/200/32 119/201/32 120/202/31 

vt 0.327249 0
vt 0.359974 0
vn -0.258819 0 0.965926
v -0.00432448 0.522232 -0.0495961
vt 0.359974 0.5
f 118/203/32 117/204/33 121/205/33 119/201/32 

vt 0.392699 0
vn -3.52738e-15 0 1
v -0.00103748 0.522232 -0.0491634
vt 0.392699 0.5
f 117/204/33 116/206/34 122/207/34 121/205/33 

vt 0.425424 0
vn 0.258819 0 0.965926
v 0.00224953 0.522232 -0.0495961
vt 0.425424 0.5
f 116/206/34 115/208/35 123/209/35 122/207/34 

vt 0.458149 0
vn 0.5 0 0.866025
v 0.00531252 0.522232 -0.0508648
vt 0.458149 0.5
f 115/208/35 114/210/36 124/211/36 123/209/35 

vt 0.458149 -8.88178e-16
vt 0.490874 -8.88178e-16
vn 0.707107 0 0.707107
v 0.00794278 0.522232 -0.0528831
vt 0.490874 0.5
f 114/212/36 113/213/37 125/214/37 124/211/36 

vt 0.523599 -8.88178e-16
vn 0.866025 0 0.5
v 0.00996105 0.522232 -0.0555134
vt 0.523599 0.5
f 113/213/37 112/215/38 126/216/38 125/214/37 

vt 0.523599 0
vt 0.556324 0
vn 0.965926 0 0.258819
v 0.0112298 0.522232 -0.0585764
vt 0.556324 0.5
f 112/217/38 111/218/39 127/219/39 126/216/38 

f 111/218/39 85/159/28 88/162/28 127/219/39 

v -0.00432448 0.522232 -0.0741306
vt 11.5457 3.55527
v -0.00738748 0.522232 -0.0728619
vt 11.5156 3.54278
v -0.0100177 0.522232 -0.0708436
vt 11.4897 3.52292
v -0.012036 0.522232 -0.0682134
vt 11.4698 3.49703
v -0.0133047 0.522232 -0.0651504
vt 11.4573 3.46688
v -0.0137375 0.522232 -0.0618634
vt 11.4531 3.43453
v -0.0133047 0.522232 -0.0585764
vt 11.4573 3.40218
v -0.012036 0.522232 -0.0555134
vt 11.4698 3.37203
vt 11.4897 3.34614
vt 11.5156 3.32628
vt 11.5457 3.31379
vt 11.5781 3.30953
vt 11.6104 3.31379
vt 11.6406 3.32628
vt 11.6665 3.34614
vt 11.6863 3.37203
vt 11.6988 3.40218
vt 11.7031 3.43453
vt 11.6988 3.46688
v 0.00996105 0.522232 -0.0682134
vt 11.6863 3.49703
v 0.00794278 0.522232 -0.0708436
vt 11.6665 3.52292
v 0.00531252 0.522232 -0.0728619
vt 11.6406 3.54278
v 0.00224953 0.522232 -0.0741306
vt 11.6104 3.55527
v -0.00103748 0.522232 -0.0745634
vt 11.5781 3.55953
f 128/220/24 129/221/24 130/222/24 131/223/24 132/224/24 133/225/24 134/226/24 135/227/24 120/228/24 119/229/24 121/230/24 122/231/24 123/232/24 124/233/24 125/234/24 126/235/24 127/236/24 88/237/24 87/238/24 136/239/24 137/240/24 138/241/24 139/242/24 140/243/24 

vt 0.0327249 -8.88178e-16
vt 0.0654498 -8.88178e-16
vt 0.0654498 0.5
vt 0.0327249 0.5
f 95/244/9 96/245/8 129/246/8 128/247/9 

vt 0.0654498 0
vt 0.0981748 0
vt 0.0981748 0.5
f 96/248/8 97/249/7 130/250/7 129/246/8 

vt 0.1309 0
vt 0.1309 0.5
f 97/249/7 99/251/6 131/252/6 130/250/7 

vt 0.163625 0
vt 0.163625 0.5
f 99/251/6 100/253/5 132/254/5 131/252/6 

vt 0.19635 0
vn -1 0 -1.39975e-17
vt 0.19635 0.5
f 100/253/5 101/255/40 133/256/40 132/254/5 

vt 0.229074 0
vn -0.965926 0 0.258819
vt 0.229074 0.5
f 101/255/40 102/257/41 134/258/41 133/256/40 

vt 0.261799 0
vn -0.866025 0 0.5
vt 0.261799 0.5
f 102/257/41 103/259/42 135/260/42 134/258/41 

vt 0.294524 0
f 103/259/42 104/261/31 120/202/31 135/260/42 

vt -3.55271e-14 0
vn -3.52738e-15 0 -1
vt 0.0327249 0
vt -3.55271e-14 0.5
f 94/262/43 95/263/9 128/247/9 140/264/43 

vt 0.752673 0
vt 0.785398 0
vt 0.785398 0.5
vt 0.752673 0.5
f 93/265/11 94/266/43 140/267/43 139/268/11 

vt 0.719948 0
vt 0.719948 0.5
f 92/269/12 93/265/11 139/268/11 138/270/12 

vt 0.687223 0
vt 0.687223 0.5
f 91/271/13 92/269/12 138/270/12 137/272/13 

vt 0.654498 0
vt 0.654498 0.5
f 90/273/14 91/271/13 137/272/13 136/274/14 

f 86/160/15 90/273/14 136/274/14 87/161/15 

vt 0.429285 4.64008
vn 1 -3.84077e-16 9.80059e-16
v 0.0910375 0.458732 0.0175116
vt 0.554285 4.51508
vt 2.24179 4.64008
f 107/275/44 141/276/44 110/277/44

v 0.0910375 0.00153187 0.0302116
vt 0.429285 0.0150775
f 141/276/44 107/275/44 142/278/44

v 0.0783375 0.0142319 0.0302116
vt 2.71726 0.140077
vn -1.22507e-16 -8.16164e-16 1
vt 2.84226 0.0150775
vt 2.84226 4.64008
f 143/279/45 142/280/45 107/281/45

v -0.0804125 0.0142319 0.0302116
vt 1.15476 0.140077
f 142/280/45 143/279/45 144/282/45

usemtl Color_A11
vt 4.18571 0.5
vn -1.24345e-16 -8.05705e-16 1
vt 10.4357 0.5
v 0.0783375 0.458732 0.0302116
vt 10.4357 18
v -0.0804125 0.458732 0.0302116
vt 4.18571 18
f 144/283/46 143/284/46 145/285/46 146/286/46 

usemtl Metal_Corrogated_Shiny
vt 2.71726 4.51508
f 143/279/45 107/281/45 145/287/45

vt 1.15476 4.51508
f 145/287/45 107/281/45 146/288/45

vt 1.02976 4.64008
f 108/289/45 146/288/45 107/281/45

f 108/289/45 144/282/45 146/288/45

v -0.0931125 0.00153187 0.0302116
vt 1.02976 0.0150775
f 147/290/45 144/282/45 108/289/45

f 144/282/45 147/290/45 142/280/45

vt -1.02976 0.429285
vn 1.47009e-15 -1 -4.90029e-16
v -0.0804125 0.00153187 0.0175116
vt -1.15476 0.554285
vt -2.84226 0.429285
f 147/291/47 148/292/47 142/293/47

v -0.0931125 0.00153187 -0.153938
vt -1.02976 2.24179
f 148/292/47 147/291/47 149/294/47

vt -0.429285 0.0150775
vn -1 -1.34427e-15 -2.45015e-15
v -0.0931125 0.0142319 0.0175116
vt -0.554285 0.140077
vt -2.24179 0.0150775
f 147/295/48 150/296/48 149/297/48

v -0.0931125 0.458732 0.0175116
vt -0.554285 4.51508
f 150/296/48 147/295/48 151/298/48

vt -0.429285 4.64008
f 108/299/48 151/298/48 147/295/48

vt -2.24179 4.64008
f 151/298/48 108/299/48 109/300/48

v -0.0931125 0.458732 -0.141238
vt -2.11679 4.51508
f 151/298/48 109/300/48 152/301/48

v -0.0931125 0.0142319 -0.141238
vt -2.11679 0.140077
f 152/301/48 109/300/48 153/302/48

f 149/297/48 153/302/48 109/300/48

f 149/297/48 150/296/48 153/302/48

usemtl Color_A11
vt -10.707 0.5
vn -1 -1.2942e-15 -2.4869e-15
vt -4.45695 0.5
vt -4.45695 18
vt -10.707 18
f 153/303/49 150/304/49 151/305/49 152/306/49 

usemtl Metal_Corrogated_Shiny
v -0.0804125 0.0142319 -0.153938
vt -1.15476 0.140077
vn 4.90029e-16 1.34427e-15 -1
vt -1.02976 0.0150775
vt -1.02976 4.64008
f 154/307/50 149/308/50 109/309/50

v 0.0910375 0.00153187 -0.153938
vt -2.84226 0.0150775
f 149/308/50 154/307/50 155/310/50

v 0.0783375 0.0142319 -0.153938
vt -2.71726 0.140077
f 156/311/50 155/310/50 154/307/50

vt -2.84226 4.64008
f 155/310/50 156/311/50 110/312/50

v 0.0783375 0.458732 -0.153938
vt -2.71726 4.51508
f 110/312/50 156/311/50 157/313/50

usemtl Color_A11
vt -4.18571 0.5
vn 5.68434e-16 1.42109e-15 -1
v -0.0804125 0.458732 -0.153938
vt -4.18571 18
vt -10.4357 18
vt -10.4357 0.5
f 154/314/51 158/315/51 157/316/51 156/317/51 

usemtl Metal_Corrogated_Shiny
vt -1.15476 4.51508
f 154/307/50 109/309/50 158/318/50

f 158/318/50 109/309/50 110/312/50

f 110/312/50 157/313/50 158/318/50

v 0.0910375 0.0142319 -0.141238
vt 2.11679 0.140077
vt 2.24179 0.0150775
f 159/319/44 155/320/44 110/277/44

v 0.0910375 0.0142319 0.0175116
vt 0.554285 0.140077
f 160/321/44 155/320/44 159/319/44

f 160/321/44 142/278/44 155/320/44

f 142/278/44 160/321/44 141/276/44

usemtl Color_A11
v 0.0910375 0.458732 -0.141238
vt 10.707 18
vn 1 -4.06024e-16 1.13687e-15
vt 4.45695 18
vt 4.45695 0.5
vt 10.707 0.5
f 161/322/52 141/323/52 160/324/52 159/325/52 

usemtl Metal_Corrogated_Shiny
vt 2.11679 4.51508
f 110/277/44 141/276/44 161/326/44

f 110/277/44 161/326/44 159/319/44

v 0.0783375 0.00153187 -0.141238
vt -2.71726 2.11679
vt -2.84226 2.24179
f 162/327/47 155/328/47 142/293/47

v -0.0804125 0.00153187 -0.141238
vt -1.15476 2.11679
f 163/329/47 155/328/47 162/327/47

f 163/329/47 149/294/47 155/328/47

f 149/294/47 163/329/47 148/292/47

usemtl Color_A11
v 0.0783375 0.00153187 0.0175116
vt -10.4357 4.45695
vn 1.46994e-15 -1 -4.90719e-16
vt -4.18571 4.45695
vt -4.18571 10.707
vt -10.4357 10.707
f 164/330/53 148/331/53 163/332/53 162/333/53 

usemtl Metal_Corrogated_Shiny
vt -2.71726 0.554285
f 142/293/47 148/292/47 164/334/47

f 142/293/47 164/334/47 162/327/47

