# Alias OBJ Model File
# Exported from SketchUp, (c) 2000-2012 Trimble Navigation Limited
# File units = meters

mtllib stairs.mtl

g Mesh1 Group2 Group1 stairs1 Model

usemtl Wood_Veneer_01
v -0.751988 1.7427 -1.37437
vt 0 0
vn -1 0 -0
v -0.751988 1.7427 -0.99637
vt 11.811 0
v -0.751988 1.7805 -0.99637
vt 11.811 1.1811
v -0.751988 1.7805 -1.37437
vt 0 1.1811
f 1/1/1 2/2/1 3/3/1 4/4/1 

vn 0 -1 -0
v 0.508012 1.7427 -1.37437
vt 0 39.3701
v 0.508012 1.7427 -0.99637
vt -11.811 39.3701
vt -11.811 0
f 1/1/2 5/5/2 6/6/2 2/7/2 

vt -39.3701 0
vn 0 0 -1
v 0.508012 1.7805 -1.37437
vt -39.3701 1.1811
f 5/8/3 1/1/3 4/4/3 7/9/3 

vn 0 1 -0
v 0.508012 1.7805 -0.99637
vt 11.811 39.3701
f 7/5/4 4/1/4 3/2/4 8/10/4 

vn 0 0 1
vt 39.3701 0
vt 39.3701 1.1811
f 2/1/5 6/11/5 8/12/5 3/4/5 

vn 1 0 -0
vt -11.811 1.1811
f 6/7/6 5/1/6 7/4/6 8/13/6 

g Mesh2 Group3 Group1 stairs1 Model

usemtl Metal_Seamed
v -0.562988 1.7427 -1.21169
vt 6.00395e-31 12.0143
vn 1.12664e-16 0.573462 -0.819232
v -0.525188 1.7427 -1.21169
vt -1.1811 12.0143
v -0.525188 1.52252 -1.36582
vt -1.1811 3.61637
v -0.562988 1.52252 -1.36582
vt 0 3.61637
f 9/14/7 10/15/7 11/16/7 12/17/7 

v -0.562988 1.7427 -1.08865
vt 0 10.7343
vn 0 1 3.2522e-16
v -0.525188 1.7427 -1.08865
vt -1.1811 10.7343
vt -1.1811 6.88976
vt 0 6.88976
f 13/18/8 14/19/8 10/20/8 9/21/8 

vt 0 14.2191
vn 0 -0.573462 0.819232
v -0.562988 1.46471 -1.28324
v -0.525188 1.46471 -1.28324
vt 1.1811 3.61637
vt 1.1811 14.2191
f 13/22/9 15/17/9 16/23/9 14/24/9 

vn -1 0 0
vt 3.14961 3.61637
vt 3.14961 14.2191
vt -5.32907e-15 12.0143
f 12/17/10 15/25/10 13/26/10 9/27/10 

vt -1.20449e-15 1.1811
vn 0 -0.819232 -0.573462
vt -3.14961 1.1811
vt -3.14961 0
vt -1.20449e-15 0
f 11/28/11 16/29/11 15/30/11 12/31/11 

vt 5.32907e-15 12.0143
vt -3.14961 14.2191
vt -3.14961 3.61637
f 10/32/6 14/33/6 16/34/6 11/17/6 

g Mesh3 Group4 Group1 stairs1 Model

v -0.625988 1.308 -1.05937
vt 0 3.14961
v -0.562988 1.308 -1.05937
vt 1.9685 3.14961
v -0.562988 1.5222 -1.05937
vt 1.9685 9.84252
v -0.625988 1.5222 -1.05937
vt 0 9.84252
f 17/35/5 18/36/5 19/37/5 20/38/5 

vt 0 -6.25713
v -0.625988 1.5285 -1.37437
vt 0 5.7572
v -0.562988 1.5285 -1.37437
vt -1.9685 5.7572
vt -1.9685 -6.25713
f 17/39/11 21/40/11 22/41/11 18/42/11 

vt 0 10.0394
vt 9.84252 3.14961
vt 9.84252 9.84252
v -0.625988 1.7427 -1.37437
vt 0 16.7323
f 21/43/1 17/44/1 20/45/1 23/46/1 

vt 0 9.59533
vn 0 0.819232 0.573462
vt 0 -2.41899
vt 1.9685 -2.41899
v -0.562988 1.7427 -1.37437
vt 1.9685 9.59533
f 23/47/12 20/48/12 19/49/12 24/50/12 

vt -9.84252 9.84252
vn 1 -4.1521e-17 -2.90647e-17
vt -9.84252 3.14961
vt -5.72139e-17 10.0394
vt -5.72139e-17 16.7323
f 19/51/13 18/52/13 22/53/13 24/54/13 

vt -1.9685 16.7323
vt -1.9685 10.0394
f 24/55/3 22/56/3 21/43/3 23/46/3 

g Mesh4 Group5 Group1 stairs1 Model

v 0.319012 1.52252 -1.36582
vn -1.12664e-16 0.573462 -0.819232
v 0.281212 1.52252 -1.36582
v 0.281212 1.7427 -1.21169
v 0.319012 1.7427 -1.21169
f 25/17/14 26/16/14 27/15/14 28/14/14 

vt -1.00374e-15 0
v 0.319012 1.46471 -1.28324
v 0.281212 1.46471 -1.28324
vt -1.00374e-15 1.1811
f 25/57/11 29/30/11 30/29/11 26/58/11 

vn 1 0 0
v 0.319012 1.7427 -1.08865
f 28/27/15 31/26/15 29/25/15 25/17/15 

vn 0 1 2.71017e-16
v 0.281212 1.7427 -1.08865
f 28/21/16 27/20/16 32/19/16 31/18/16 

f 26/17/1 30/34/1 32/33/1 27/32/1 

f 32/24/9 30/23/9 29/17/9 31/22/9 

g Mesh5 Group6 Group1 stairs1 Model

v 0.382012 1.5222 -1.05937
v 0.319012 1.5222 -1.05937
v 0.319012 1.308 -1.05937
v 0.382012 1.308 -1.05937
f 33/38/5 34/37/5 35/36/5 36/35/5 

v 0.319012 1.7427 -1.37437
v 0.382012 1.7427 -1.37437
f 37/50/12 34/49/12 33/48/12 38/47/12 

vn -1 -4.1521e-17 -2.90647e-17
v 0.319012 1.5285 -1.37437
f 37/54/17 39/53/17 35/52/17 34/51/17 

v 0.382012 1.5285 -1.37437
f 38/46/3 40/43/3 39/56/3 37/55/3 

f 38/46/6 33/45/6 36/44/6 40/43/6 

vn -0 -0.819232 -0.573462
f 35/42/18 39/41/18 40/40/18 36/39/18 

g Mesh6 Group8 Group7 stairs1 Model

usemtl Wood_Veneer_01
v -0.751988 1.5222 -1.05937
v -0.751988 1.5222 -0.68137
v -0.751988 1.56 -0.68137
v -0.751988 1.56 -1.05937
f 41/1/1 42/2/1 43/3/1 44/4/1 

v 0.508012 1.5222 -1.05937
v 0.508012 1.5222 -0.68137
f 41/1/2 45/5/2 46/6/2 42/7/2 

v 0.508012 1.56 -1.05937
f 45/8/3 41/1/3 44/4/3 47/9/3 

v 0.508012 1.56 -0.68137
f 47/5/4 44/1/4 43/2/4 48/10/4 

f 42/1/5 46/11/5 48/12/5 43/4/5 

f 46/7/6 45/1/6 47/4/6 48/13/6 

g Mesh7 Group9 Group7 stairs1 Model

usemtl Metal_Seamed
v -0.562988 1.5222 -0.896694
v -0.525188 1.5222 -0.896694
v -0.525188 1.30202 -1.05082
v -0.562988 1.30202 -1.05082
f 49/14/7 50/15/7 51/16/7 52/17/7 

v -0.562988 1.5222 -0.773652
v -0.525188 1.5222 -0.773652
f 53/18/8 54/19/8 50/20/8 49/21/8 

v -0.562988 1.24421 -0.968244
v -0.525188 1.24421 -0.968244
f 53/22/9 55/17/9 56/23/9 54/24/9 

f 52/17/10 55/25/10 53/26/10 49/27/10 

f 51/28/11 56/29/11 55/30/11 52/31/11 

f 50/32/6 54/33/6 56/34/6 51/17/6 

g Mesh8 Group10 Group7 stairs1 Model

v -0.625988 1.0875 -0.74437
v -0.562988 1.0875 -0.74437
v -0.562988 1.3017 -0.74437
v -0.625988 1.3017 -0.74437
f 57/35/5 58/36/5 59/37/5 60/38/5 

f 57/39/11 17/40/11 18/41/11 58/42/11 

f 17/43/1 57/44/1 60/45/1 20/46/1 

f 20/47/12 60/48/12 59/49/12 19/50/12 

f 59/51/13 58/52/13 18/53/13 19/54/13 

f 19/55/3 18/56/3 17/43/3 20/46/3 

g Mesh9 Group11 Group7 stairs1 Model

v 0.319012 1.30202 -1.05082
v 0.281212 1.30202 -1.05082
v 0.281212 1.5222 -0.896694
v 0.319012 1.5222 -0.896694
f 61/17/14 62/16/14 63/15/14 64/14/14 

v 0.319012 1.24421 -0.968244
v 0.281212 1.24421 -0.968244
f 61/57/11 65/30/11 66/29/11 62/58/11 

v 0.319012 1.5222 -0.773652
f 64/27/15 67/26/15 65/25/15 61/17/15 

v 0.281212 1.5222 -0.773652
f 64/21/16 63/20/16 68/19/16 67/18/16 

f 62/17/1 66/34/1 68/33/1 63/32/1 

f 68/24/9 66/23/9 65/17/9 67/22/9 

g Mesh10 Group12 Group7 stairs1 Model

v 0.382012 1.3017 -0.74437
v 0.319012 1.3017 -0.74437
v 0.319012 1.0875 -0.74437
v 0.382012 1.0875 -0.74437
f 69/38/5 70/37/5 71/36/5 72/35/5 

f 34/50/12 70/49/12 69/48/12 33/47/12 

f 34/54/17 35/53/17 71/52/17 70/51/17 

f 33/46/3 36/43/3 35/56/3 34/55/3 

f 33/46/6 69/45/6 72/44/6 36/43/6 

f 71/42/18 35/41/18 36/40/18 72/39/18 

g Mesh11 Group14 Group13 stairs1 Model

usemtl Wood_Veneer_01
v -0.751988 1.3017 -0.74437
v -0.751988 1.3017 -0.36637
v -0.751988 1.3395 -0.36637
v -0.751988 1.3395 -0.74437
f 73/1/1 74/2/1 75/3/1 76/4/1 

v 0.508012 1.3017 -0.74437
v 0.508012 1.3017 -0.36637
f 73/1/2 77/5/2 78/6/2 74/7/2 

v 0.508012 1.3395 -0.74437
f 77/8/3 73/1/3 76/4/3 79/9/3 

v 0.508012 1.3395 -0.36637
f 79/5/4 76/1/4 75/2/4 80/10/4 

f 74/1/5 78/11/5 80/12/5 75/4/5 

f 78/7/6 77/1/6 79/4/6 80/13/6 

g Mesh12 Group15 Group13 stairs1 Model

usemtl Metal_Seamed
v -0.562988 1.3017 -0.581694
v -0.525188 1.3017 -0.581694
v -0.525188 1.08152 -0.735822
v -0.562988 1.08152 -0.735822
f 81/14/7 82/15/7 83/16/7 84/17/7 

v -0.562988 1.3017 -0.458652
v -0.525188 1.3017 -0.458652
f 85/18/8 86/19/8 82/20/8 81/21/8 

v -0.562988 1.02371 -0.653244
v -0.525188 1.02371 -0.653244
f 85/22/9 87/17/9 88/23/9 86/24/9 

f 84/17/10 87/25/10 85/26/10 81/27/10 

f 83/28/11 88/29/11 87/30/11 84/31/11 

f 82/32/6 86/33/6 88/34/6 83/17/6 

g Mesh13 Group16 Group13 stairs1 Model

v -0.625988 0.867 -0.42937
v -0.562988 0.867 -0.42937
v -0.562988 1.0812 -0.42937
v -0.625988 1.0812 -0.42937
f 89/35/5 90/36/5 91/37/5 92/38/5 

v -0.625988 1.0875 -0.74437
v -0.562988 1.0875 -0.74437
f 89/39/11 93/40/11 94/41/11 90/42/11 

v -0.625988 1.3017 -0.74437
f 93/43/1 89/44/1 92/45/1 95/46/1 

v -0.562988 1.3017 -0.74437
f 95/47/12 92/48/12 91/49/12 96/50/12 

f 91/51/13 90/52/13 94/53/13 96/54/13 

f 96/55/3 94/56/3 93/43/3 95/46/3 

g Mesh14 Group17 Group13 stairs1 Model

v 0.319012 1.08152 -0.735822
v 0.281212 1.08152 -0.735822
v 0.281212 1.3017 -0.581694
v 0.319012 1.3017 -0.581694
f 97/17/14 98/16/14 99/15/14 100/14/14 

v 0.319012 1.02371 -0.653244
v 0.281212 1.02371 -0.653244
f 97/57/11 101/30/11 102/29/11 98/58/11 

v 0.319012 1.3017 -0.458652
f 100/27/15 103/26/15 101/25/15 97/17/15 

v 0.281212 1.3017 -0.458652
f 100/21/16 99/20/16 104/19/16 103/18/16 

f 98/17/1 102/34/1 104/33/1 99/32/1 

f 104/24/9 102/23/9 101/17/9 103/22/9 

g Mesh15 Group18 Group13 stairs1 Model

v 0.382012 1.0812 -0.42937
v 0.319012 1.0812 -0.42937
v 0.319012 0.867 -0.42937
v 0.382012 0.867 -0.42937
f 105/38/5 106/37/5 107/36/5 108/35/5 

v 0.319012 1.3017 -0.74437
v 0.382012 1.3017 -0.74437
f 109/50/12 106/49/12 105/48/12 110/47/12 

v 0.319012 1.0875 -0.74437
f 109/54/17 111/53/17 107/52/17 106/51/17 

v 0.382012 1.0875 -0.74437
f 110/46/3 112/43/3 111/56/3 109/55/3 

f 110/46/6 105/45/6 108/44/6 112/43/6 

f 107/42/18 111/41/18 112/40/18 108/39/18 

g Mesh16 Group20 Group19 stairs1 Model

usemtl Wood_Veneer_01
v -0.751988 1.0812 -0.42937
v -0.751988 1.0812 -0.0513701
v -0.751988 1.119 -0.0513701
v -0.751988 1.119 -0.42937
f 113/1/1 114/2/1 115/3/1 116/4/1 

v 0.508012 1.0812 -0.42937
v 0.508012 1.0812 -0.0513701
f 113/1/2 117/5/2 118/6/2 114/7/2 

v 0.508012 1.119 -0.42937
f 117/8/3 113/1/3 116/4/3 119/9/3 

v 0.508012 1.119 -0.0513701
f 119/5/4 116/1/4 115/2/4 120/10/4 

f 114/1/5 118/11/5 120/12/5 115/4/5 

f 118/7/6 117/1/6 119/4/6 120/13/6 

g Mesh17 Group21 Group19 stairs1 Model

usemtl Metal_Seamed
v -0.562988 1.0812 -0.266694
v -0.525188 1.0812 -0.266694
v -0.525188 0.861016 -0.420822
v -0.562988 0.861016 -0.420822
f 121/14/7 122/15/7 123/16/7 124/17/7 

v -0.562988 1.0812 -0.143652
v -0.525188 1.0812 -0.143652
f 125/18/8 126/19/8 122/20/8 121/21/8 

v -0.562988 0.803211 -0.338244
v -0.525188 0.803211 -0.338244
f 125/22/9 127/17/9 128/23/9 126/24/9 

f 124/17/10 127/25/10 125/26/10 121/27/10 

f 123/28/11 128/29/11 127/30/11 124/31/11 

f 122/32/6 126/33/6 128/34/6 123/17/6 

g Mesh18 Group22 Group19 stairs1 Model

v -0.625988 0.6465 -0.11437
v -0.562988 0.6465 -0.11437
v -0.562988 0.8607 -0.11437
v -0.625988 0.8607 -0.11437
f 129/35/5 130/36/5 131/37/5 132/38/5 

v -0.625988 0.867 -0.42937
v -0.562988 0.867 -0.42937
f 129/39/11 133/40/11 134/41/11 130/42/11 

v -0.625988 1.0812 -0.42937
f 133/43/1 129/44/1 132/45/1 135/46/1 

v -0.562988 1.0812 -0.42937
f 135/47/12 132/48/12 131/49/12 136/50/12 

f 131/51/13 130/52/13 134/53/13 136/54/13 

f 136/55/3 134/56/3 133/43/3 135/46/3 

g Mesh19 Group23 Group19 stairs1 Model

v 0.319012 0.861016 -0.420822
v 0.281212 0.861016 -0.420822
v 0.281212 1.0812 -0.266694
v 0.319012 1.0812 -0.266694
f 137/17/14 138/16/14 139/15/14 140/14/14 

v 0.319012 0.803211 -0.338244
v 0.281212 0.803211 -0.338244
f 137/57/11 141/30/11 142/29/11 138/58/11 

v 0.319012 1.0812 -0.143652
f 140/27/15 143/26/15 141/25/15 137/17/15 

v 0.281212 1.0812 -0.143652
f 140/21/16 139/20/16 144/19/16 143/18/16 

f 138/17/1 142/34/1 144/33/1 139/32/1 

f 144/24/9 142/23/9 141/17/9 143/22/9 

g Mesh20 Group24 Group19 stairs1 Model

v 0.382012 0.8607 -0.11437
v 0.319012 0.8607 -0.11437
v 0.319012 0.6465 -0.11437
v 0.382012 0.6465 -0.11437
f 145/38/5 146/37/5 147/36/5 148/35/5 

v 0.319012 1.0812 -0.42937
v 0.382012 1.0812 -0.42937
f 149/50/12 146/49/12 145/48/12 150/47/12 

v 0.319012 0.867 -0.42937
f 149/54/17 151/53/17 147/52/17 146/51/17 

v 0.382012 0.867 -0.42937
f 150/46/3 152/43/3 151/56/3 149/55/3 

f 150/46/6 145/45/6 148/44/6 152/43/6 

f 147/42/18 151/41/18 152/40/18 148/39/18 

g Mesh21 Group26 Group25 stairs1 Model

usemtl Wood_Veneer_01
v -0.751988 0.8607 -0.11437
v -0.751988 0.8607 0.26363
v -0.751988 0.8985 0.26363
v -0.751988 0.8985 -0.11437
f 153/1/1 154/2/1 155/3/1 156/4/1 

v 0.508012 0.8607 -0.11437
v 0.508012 0.8607 0.26363
f 153/1/2 157/5/2 158/6/2 154/7/2 

v 0.508012 0.8985 -0.11437
f 157/8/3 153/1/3 156/4/3 159/9/3 

v 0.508012 0.8985 0.26363
f 159/5/4 156/1/4 155/2/4 160/10/4 

f 154/1/5 158/11/5 160/12/5 155/4/5 

f 158/7/6 157/1/6 159/4/6 160/13/6 

g Mesh22 Group27 Group25 stairs1 Model

usemtl Metal_Seamed
v -0.562988 0.8607 0.0483063
v -0.525188 0.8607 0.0483063
v -0.525188 0.640516 -0.105822
v -0.562988 0.640516 -0.105822
f 161/14/7 162/15/7 163/16/7 164/17/7 

v -0.562988 0.8607 0.171348
v -0.525188 0.8607 0.171348
f 165/18/8 166/19/8 162/20/8 161/21/8 

v -0.562988 0.582711 -0.0232436
v -0.525188 0.582711 -0.0232436
f 165/22/9 167/17/9 168/23/9 166/24/9 

f 164/17/10 167/25/10 165/26/10 161/27/10 

f 163/28/11 168/29/11 167/30/11 164/31/11 

f 162/32/6 166/33/6 168/34/6 163/17/6 

g Mesh23 Group28 Group25 stairs1 Model

v -0.625988 0.426 0.20063
v -0.562988 0.426 0.20063
v -0.562988 0.6402 0.20063
v -0.625988 0.6402 0.20063
f 169/35/5 170/36/5 171/37/5 172/38/5 

v -0.625988 0.6465 -0.11437
v -0.562988 0.6465 -0.11437
f 169/39/11 173/40/11 174/41/11 170/42/11 

v -0.625988 0.8607 -0.11437
f 173/43/1 169/44/1 172/45/1 175/46/1 

v -0.562988 0.8607 -0.11437
f 175/47/12 172/48/12 171/49/12 176/50/12 

f 171/51/13 170/52/13 174/53/13 176/54/13 

f 176/55/3 174/56/3 173/43/3 175/46/3 

g Mesh24 Group29 Group25 stairs1 Model

v 0.319012 0.640516 -0.105822
v 0.281212 0.640516 -0.105822
v 0.281212 0.8607 0.0483063
v 0.319012 0.8607 0.0483063
f 177/17/14 178/16/14 179/15/14 180/14/14 

v 0.319012 0.582711 -0.0232436
v 0.281212 0.582711 -0.0232436
f 177/57/11 181/30/11 182/29/11 178/58/11 

v 0.319012 0.8607 0.171348
f 180/27/15 183/26/15 181/25/15 177/17/15 

v 0.281212 0.8607 0.171348
f 180/21/16 179/20/16 184/19/16 183/18/16 

f 178/17/1 182/34/1 184/33/1 179/32/1 

f 184/24/9 182/23/9 181/17/9 183/22/9 

g Mesh25 Group30 Group25 stairs1 Model

v 0.382012 0.6402 0.20063
v 0.319012 0.6402 0.20063
v 0.319012 0.426 0.20063
v 0.382012 0.426 0.20063
f 185/38/5 186/37/5 187/36/5 188/35/5 

v 0.319012 0.8607 -0.11437
v 0.382012 0.8607 -0.11437
f 189/50/12 186/49/12 185/48/12 190/47/12 

v 0.319012 0.6465 -0.11437
f 189/54/17 191/53/17 187/52/17 186/51/17 

v 0.382012 0.6465 -0.11437
f 190/46/3 192/43/3 191/56/3 189/55/3 

f 190/46/6 185/45/6 188/44/6 192/43/6 

f 187/42/18 191/41/18 192/40/18 188/39/18 

g Mesh26 Group32 Group31 stairs1 Model

usemtl Wood_Veneer_01
v -0.751988 0.6402 0.20063
v -0.751988 0.6402 0.57863
v -0.751988 0.678 0.57863
v -0.751988 0.678 0.20063
f 193/1/1 194/2/1 195/3/1 196/4/1 

v 0.508012 0.6402 0.20063
v 0.508012 0.6402 0.57863
f 193/1/2 197/5/2 198/6/2 194/7/2 

v 0.508012 0.678 0.20063
f 197/8/3 193/1/3 196/4/3 199/9/3 

v 0.508012 0.678 0.57863
f 199/5/4 196/1/4 195/2/4 200/10/4 

f 194/1/5 198/11/5 200/12/5 195/4/5 

f 198/7/6 197/1/6 199/4/6 200/13/6 

g Mesh27 Group33 Group31 stairs1 Model

usemtl Metal_Seamed
v -0.562988 0.6402 0.363306
v -0.525188 0.6402 0.363306
v -0.525188 0.420016 0.209178
v -0.562988 0.420016 0.209178
f 201/14/7 202/15/7 203/16/7 204/17/7 

v -0.562988 0.6402 0.486348
v -0.525188 0.6402 0.486348
f 205/18/8 206/19/8 202/20/8 201/21/8 

v -0.562988 0.362211 0.291756
v -0.525188 0.362211 0.291756
f 205/22/9 207/17/9 208/23/9 206/24/9 

f 204/17/10 207/25/10 205/26/10 201/27/10 

f 203/28/11 208/29/11 207/30/11 204/31/11 

f 202/32/6 206/33/6 208/34/6 203/17/6 

g Mesh28 Group34 Group31 stairs1 Model

v -0.625988 0.2055 0.51563
v -0.562988 0.2055 0.51563
v -0.562988 0.4197 0.51563
v -0.625988 0.4197 0.51563
f 209/35/5 210/36/5 211/37/5 212/38/5 

v -0.625988 0.426 0.20063
v -0.562988 0.426 0.20063
f 209/39/11 213/40/11 214/41/11 210/42/11 

v -0.625988 0.6402 0.20063
f 213/43/1 209/44/1 212/45/1 215/46/1 

v -0.562988 0.6402 0.20063
f 215/47/12 212/48/12 211/49/12 216/50/12 

f 211/51/13 210/52/13 214/53/13 216/54/13 

f 216/55/3 214/56/3 213/43/3 215/46/3 

g Mesh29 Group35 Group31 stairs1 Model

v 0.319012 0.420016 0.209178
v 0.281212 0.420016 0.209178
v 0.281212 0.6402 0.363306
v 0.319012 0.6402 0.363306
f 217/17/14 218/16/14 219/15/14 220/14/14 

v 0.319012 0.362211 0.291756
v 0.281212 0.362211 0.291756
f 217/57/11 221/30/11 222/29/11 218/58/11 

v 0.319012 0.6402 0.486348
f 220/27/15 223/26/15 221/25/15 217/17/15 

v 0.281212 0.6402 0.486348
f 220/21/16 219/20/16 224/19/16 223/18/16 

f 218/17/1 222/34/1 224/33/1 219/32/1 

f 224/24/9 222/23/9 221/17/9 223/22/9 

g Mesh30 Group36 Group31 stairs1 Model

v 0.382012 0.4197 0.51563
v 0.319012 0.4197 0.51563
v 0.319012 0.2055 0.51563
v 0.382012 0.2055 0.51563
f 225/38/5 226/37/5 227/36/5 228/35/5 

v 0.319012 0.6402 0.20063
v 0.382012 0.6402 0.20063
f 229/50/12 226/49/12 225/48/12 230/47/12 

v 0.319012 0.426 0.20063
f 229/54/17 231/53/17 227/52/17 226/51/17 

v 0.382012 0.426 0.20063
f 230/46/3 232/43/3 231/56/3 229/55/3 

f 230/46/6 225/45/6 228/44/6 232/43/6 

f 227/42/18 231/41/18 232/40/18 228/39/18 

g Mesh31 Group38 Group37 stairs1 Model

usemtl Wood_Veneer_01
v -0.751988 0.4197 0.51563
v -0.751988 0.4197 0.89363
v -0.751988 0.4575 0.89363
v -0.751988 0.4575 0.51563
f 233/1/1 234/2/1 235/3/1 236/4/1 

v 0.508012 0.4197 0.51563
v 0.508012 0.4197 0.89363
f 233/1/2 237/5/2 238/6/2 234/7/2 

v 0.508012 0.4575 0.51563
f 237/8/3 233/1/3 236/4/3 239/9/3 

v 0.508012 0.4575 0.89363
f 239/5/4 236/1/4 235/2/4 240/10/4 

f 234/1/5 238/11/5 240/12/5 235/4/5 

f 238/7/6 237/1/6 239/4/6 240/13/6 

g Mesh32 Group39 Group37 stairs1 Model

usemtl Metal_Seamed
v -0.562988 0.4197 0.678306
v -0.525188 0.4197 0.678306
v -0.525188 0.199516 0.524178
v -0.562988 0.199516 0.524178
f 241/14/7 242/15/7 243/16/7 244/17/7 

v -0.562988 0.4197 0.801348
v -0.525188 0.4197 0.801348
f 245/18/8 246/19/8 242/20/8 241/21/8 

v -0.562988 0.141711 0.606756
v -0.525188 0.141711 0.606756
f 245/22/9 247/17/9 248/23/9 246/24/9 

f 244/17/10 247/25/10 245/26/10 241/27/10 

f 243/28/11 248/29/11 247/30/11 244/31/11 

f 242/32/6 246/33/6 248/34/6 243/17/6 

g Mesh33 Group40 Group37 stairs1 Model

v -0.625988 -0.015 0.83063
v -0.562988 -0.015 0.83063
v -0.562988 0.1992 0.83063
v -0.625988 0.1992 0.83063
f 249/35/5 250/36/5 251/37/5 252/38/5 

v -0.625988 0.2055 0.51563
v -0.562988 0.2055 0.51563
f 249/39/11 253/40/11 254/41/11 250/42/11 

v -0.625988 0.4197 0.51563
f 253/43/1 249/44/1 252/45/1 255/46/1 

v -0.562988 0.4197 0.51563
f 255/47/12 252/48/12 251/49/12 256/50/12 

f 251/51/13 250/52/13 254/53/13 256/54/13 

f 256/55/3 254/56/3 253/43/3 255/46/3 

g Mesh34 Group41 Group37 stairs1 Model

v 0.319012 0.199516 0.524178
v 0.281212 0.199516 0.524178
v 0.281212 0.4197 0.678306
v 0.319012 0.4197 0.678306
f 257/17/14 258/16/14 259/15/14 260/14/14 

v 0.319012 0.141711 0.606756
v 0.281212 0.141711 0.606756
f 257/57/11 261/30/11 262/29/11 258/58/11 

v 0.319012 0.4197 0.801348
f 260/27/15 263/26/15 261/25/15 257/17/15 

v 0.281212 0.4197 0.801348
f 260/21/16 259/20/16 264/19/16 263/18/16 

f 258/17/1 262/34/1 264/33/1 259/32/1 

f 264/24/9 262/23/9 261/17/9 263/22/9 

g Mesh35 Group42 Group37 stairs1 Model

v 0.382012 0.1992 0.83063
v 0.319012 0.1992 0.83063
v 0.319012 -0.015 0.83063
v 0.382012 -0.015 0.83063
f 265/38/5 266/37/5 267/36/5 268/35/5 

v 0.319012 0.4197 0.51563
v 0.382012 0.4197 0.51563
f 269/50/12 266/49/12 265/48/12 270/47/12 

v 0.319012 0.2055 0.51563
f 269/54/17 271/53/17 267/52/17 266/51/17 

v 0.382012 0.2055 0.51563
f 270/46/3 272/43/3 271/56/3 269/55/3 

f 270/46/6 265/45/6 268/44/6 272/43/6 

f 267/42/18 271/41/18 272/40/18 268/39/18 

