# Alias OBJ Model File
# Exported from SketchUp, (c) 2000-2012 Trimble Navigation Limited
# File units = meters

mtllib dresserRed.mtl

g Mesh1 Group_8_1 Model

usemtl furniture_wood_grain_2
v 0.234815 0.0508 0.496604
vt -0.486111 0.305289
vn 0 -1 0
v -0.044585 0.0508 0.496604
vt -0.486111 0.0843563
v -0.044585 0.0508 0.471204
vt -0.472222 0.0843563
v 0.234815 0.0508 0.471204
vt -0.472222 0.305289
f 1/1/1 2/2/1 3/3/1 4/4/1 

v -0.146185 3.60707e-16 0.496604
vt 0.00277778 0
vn -2.77556e-16 0 1
v -0.069985 3.60707e-16 0.496604
vt 0.0444444 0
vt 0.0583333 0.0401697
vt 0.211111 0.0401697
v 0.260215 3.60707e-16 0.496604
vt 0.225 0
v 0.336415 3.60707e-16 0.496604
vt 0.266667 0
v 0.336415 0.0762 0.496604
vt 0.266667 0.0602545
v -0.146185 0.0762 0.496604
vt 0.00277778 0.0602545
f 5/5/2 6/6/2 2/7/2 1/8/2 7/9/2 8/10/2 9/11/2 10/12/2 

v -0.146185 3.60707e-16 0.420404
vt -0.444444 0.00401697
v -0.120785 3.60707e-16 0.420404
vt -0.444444 0.0241018
v -0.120785 3.60707e-16 0.471204
vt -0.472222 0.0241018
v -0.069985 3.60707e-16 0.471204
vt -0.472222 0.0642715
vt -0.486111 0.0642715
vt -0.486111 0.00401697
f 11/13/1 12/14/1 13/15/1 14/16/1 6/17/1 5/18/1 

vt -0.00277778 -0.287431
vn 2.48253e-16 -0.447214 -0.894427
v -0.146185 0.0508 0.395004
vt -0.00277778 -0.24252
v -0.120785 0.0508 0.395004
vt -0.0166667 -0.24252
vt -0.0166667 -0.287431
f 11/19/3 15/20/3 16/21/3 12/22/3 

v -0.146185 3.60707e-16 -0.392396
vt 0 0
vn -1 0 -2.77556e-16
v -0.146185 3.60707e-16 -0.316196
vt 0.0416667 0
v -0.146185 0.0508 -0.290796
vt 0.0555556 0.0401697
vt 0.430556 0.0401697
vt 0.444444 0
vt 0.486111 0
vt 0.486111 0.0602545
v -0.146185 0.0762 -0.392396
vt 0 0.0602545
f 17/23/4 18/24/4 19/25/4 15/26/4 11/27/4 5/28/4 10/29/4 20/30/4 

v -0.120785 3.60707e-16 -0.366996
vt -0.0138889 0.0241018
v -0.120785 3.60707e-16 -0.316196
vt -0.0416667 0.0241018
vt -0.0416667 0.00401697
vt 0 0.00401697
v -0.069985 3.60707e-16 -0.392396
vt 0 0.0642715
v -0.069985 3.60707e-16 -0.366996
vt -0.0138889 0.0642715
f 21/31/1 22/32/1 18/33/1 17/34/1 23/35/1 24/36/1 

vt -0.0416667 0
vn 1 0 2.77556e-16
vt -0.0138889 0
v -0.120785 0.0635 -0.366996
vt -0.0138889 0.0502121
v -0.120785 0.0635 0.471204
vt -0.472222 0.0502121
vt -0.472222 0
vt -0.444444 0
vt -0.430556 0.0401697
v -0.120785 0.0508 -0.290796
vt -0.0555556 0.0401697
f 22/37/5 21/38/5 25/39/5 26/40/5 13/41/5 12/42/5 16/43/5 27/44/5 

v -0.044585 0.0508 -0.366996
v 0.234815 0.0508 -0.366996
v 0.260215 3.60707e-16 -0.366996
v 0.311015 3.60707e-16 -0.366996
vt 0.252778 0
v 0.311015 0.0635 -0.366996
vt 0.252778 0.0502121
vt 0.0166667 0.0502121
vt 0.0166667 0
f 24/6/2 28/7/2 29/8/2 30/9/2 31/45/2 32/46/2 25/47/2 21/48/2 

vt 0 0.0287431
vn 0.894427 -0.447214 2.48253e-16
v -0.044585 0.0508 -0.392396
vt 0 0.0736541
vt -0.0138889 0.0736541
vt -0.0138889 0.0287431
f 23/49/6 33/50/6 28/51/6 24/52/6 

v 0.336415 3.60707e-16 -0.392396
vt -0.266667 0
vn 2.77556e-16 0 -1
v 0.260215 3.60707e-16 -0.392396
vt -0.225 0
v 0.234815 0.0508 -0.392396
vt -0.211111 0.0401697
vt -0.0583333 0.0401697
vt -0.0444444 0
vt -0.00277778 0
vt -0.00277778 0.0602545
v 0.336415 0.0762 -0.392396
vt -0.266667 0.0602545
f 34/53/7 35/54/7 36/55/7 33/56/7 23/57/7 17/58/7 20/59/7 37/60/7 

v 0.336415 3.60707e-16 -0.316196
vt -0.0416667 0.385629
v 0.311015 3.60707e-16 -0.316196
vt -0.0416667 0.365544
vt -0.0138889 0.365544
vt -0.0138889 0.325374
vt 0 0.325374
vt 0 0.385629
f 38/61/1 39/62/1 31/63/1 30/64/1 35/65/1 34/66/1 

vt 0.266667 0.0269466
vn -2.48253e-16 -0.447214 0.894427
v 0.336415 0.0508 -0.290796
vt 0.266667 0.0718577
v 0.311015 0.0508 -0.290796
vt 0.252778 0.0718577
vt 0.252778 0.0269466
f 38/67/8 40/68/8 41/69/8 39/70/8 

vt -0.486111 0
v 0.336415 3.60707e-16 0.420404
v 0.336415 0.0508 0.395004
vt -0.486111 0.0602545
f 8/71/5 42/42/5 43/43/5 40/44/5 38/37/5 34/23/5 37/30/5 9/72/5 

v 0.311015 3.60707e-16 0.471204
vt -0.472222 0.365544
v 0.311015 3.60707e-16 0.420404
vt -0.444444 0.365544
vt -0.444444 0.385629
vt -0.486111 0.385629
vt -0.486111 0.325374
v 0.260215 3.60707e-16 0.471204
vt -0.472222 0.325374
f 44/73/1 45/74/1 42/75/1 8/76/1 7/77/1 46/78/1 

vt 0.444444 -4.15575e-15
vn -1 -1.13687e-14 -2.77556e-16
vt 0.472222 -4.15575e-15
v 0.311015 0.0635 0.471204
vt 0.472222 0.0502121
vt 0.0138889 0.0502121
vt 0.0138889 -4.15575e-15
vt 0.0416667 -4.15575e-15
v 0.311015 0.0508 0.395004
f 45/79/9 44/80/9 47/81/9 32/82/9 31/83/9 39/84/9 41/25/9 48/26/9 

vt -0.0166667 0
vt -0.0166667 0.0502121
vt -0.252778 0.0502121
vt -0.252778 0
f 14/57/7 13/85/7 26/86/7 47/87/7 44/88/7 46/54/7 4/55/7 3/56/7 

f 26/15/1 25/31/1 32/63/1 47/73/1 

vt 0.486111 -0.145512
vn -0.894427 -0.447214 -2.48253e-16
vt 0.486111 -0.100601
vt 0.472222 -0.100601
vt 0.472222 -0.145512
f 7/89/10 1/90/10 4/91/10 46/92/10 

vt -0.486111 0.0736541
vt -0.486111 0.0287431
vt -0.472222 0.0287431
vt -0.472222 0.0736541
f 2/93/6 6/94/6 14/95/6 3/96/6 

vt -0.0555556 0.385629
vt -0.430556 0.385629
vt -0.430556 0.365544
vt -0.0555556 0.365544
f 40/97/1 43/98/1 48/99/1 41/100/1 

vt -0.266667 -0.24252
vt -0.266667 -0.287431
vt -0.252778 -0.287431
vt -0.252778 -0.24252
f 43/101/3 42/102/3 45/103/3 48/104/3 

usemtl FrontColor
v 0.336415 0.7747 0.496604
vt -35 30.5
vt -35 3
vt 0 3
v 0.336415 0.7747 -0.392396
vt 0 30.5
v 0.336415 0.7747 -0.379696
vt -0.5 30.5
v 0.336415 0.762 -0.366996
vt -1 30
v 0.336415 0.7493 -0.366996
vt -1 29.5
v 0.336415 0.7493 0.471204
vt -34 29.5
v 0.336415 0.762 0.471204
vt -34 30
v 0.336415 0.7747 0.483904
vt -34.5 30.5
f 49/105/5 9/106/5 37/107/5 50/108/5 51/109/5 52/110/5 53/111/5 54/112/5 55/113/5 56/114/5 

v -0.146185 0.7747 0.496604
vt 0.2 30.5
vt 0.2 3
vt 19.2 3
vt 19.2 30.5
f 57/115/2 10/116/2 9/117/2 49/118/2 

v -0.146185 0.1016 0.471204
vt 34 4
vt 35 3
vt 35 30.5
f 58/119/4 10/120/4 57/121/4

f 10/120/4 58/119/4 20/107/4

v -0.146185 0.1016 -0.366996
vt 1 4
f 59/122/4 20/107/4 58/119/4

v -0.146185 0.7747 -0.392396
f 20/107/4 59/122/4 60/108/4

v -0.146185 0.40386 -0.366996
vt 1 15.9
f 60/108/4 59/122/4 61/123/4

vt -0.2 15.9
vt -0.2 4
v -0.151265 0.1016 -0.366996
vt 0 4
v -0.151265 0.40386 -0.366996
vt 0 15.9
f 61/124/7 59/125/7 62/126/7 63/127/7 

vt -1 0.2
vt -34 0.2
v -0.151265 0.1016 0.471204
vt -34 0
vt -1 0
f 59/128/1 58/129/1 64/130/1 62/131/1 

vt 0.2 4
v -0.146185 0.40386 0.471204
vt 0.2 15.9
v -0.148725 0.40386 0.471204
vt 0.1 15.9
v -0.148725 0.36576 0.471204
vt 0.1 14.4
v -0.151265 0.36576 0.471204
vt 0 14.4
f 58/132/2 65/133/2 66/134/2 67/135/2 68/136/2 64/126/2 

vt 34 15.9
f 58/119/4 57/121/4 65/137/4

v -0.146185 0.4064 0.471204
vt 34 16
f 65/137/4 57/121/4 69/138/4

v -0.146185 0.58166 0.471204
vt 34 22.9
f 69/138/4 57/121/4 70/139/4

v -0.146185 0.5842 0.471204
vt 34 23
f 70/139/4 57/121/4 71/140/4

v -0.146185 0.7239 0.471204
vt 34 28.5
f 71/140/4 57/121/4 72/141/4

v -0.146185 0.7493 0.471204
vt 34 29.5
f 72/141/4 57/121/4 73/142/4

v -0.146185 0.762 0.471204
vt 34 30
f 73/142/4 57/121/4 74/143/4

v -0.146185 0.7747 0.483904
vt 34.5 30.5
f 74/143/4 57/121/4 75/144/4

vt 35 19.2
vn 0 1 -0
vt 34.5 19.2
vt 34.5 0.2
vt 35 0.2
f 49/145/11 56/146/11 75/147/11 57/148/11 

vt -0.2 45.2548
vn 1.96262e-16 0.707107 -0.707107
vt -0.2 45.9619
vt -19.2 45.9619
vt -19.2 45.2548
f 74/149/12 75/150/12 56/151/12 55/152/12 

vt -0.2 30
vt -19.2 30
vt -19.2 29.5
vt -0.2 29.5
f 74/153/7 55/154/7 54/155/7 73/156/7 

v -0.146185 0.7493 -0.366996
vt 1 0.2
vt 34 0.2
vt 34 19.2
vt 1 19.2
f 76/157/11 73/158/11 54/159/11 53/160/11 

vt 1 29.5
v -0.146185 0.7239 -0.366996
vt 1 28.5
f 76/161/4 77/162/4 73/142/4

f 60/108/4 77/162/4 76/161/4

v -0.146185 0.5842 -0.366996
vt 1 23
f 60/108/4 78/163/4 77/162/4

v -0.146185 0.58166 -0.366996
vt 1 22.9
f 60/108/4 79/164/4 78/163/4

v -0.146185 0.4064 -0.366996
vt 1 16
f 60/108/4 80/165/4 79/164/4

f 60/108/4 61/123/4 80/165/4

f 65/137/4 69/138/4 80/165/4 61/123/4 

v -0.151265 0.4064 0.471204
v -0.151265 0.4064 -0.366996
f 80/128/1 69/129/1 81/130/1 82/131/1 

vt 0.2 16
vt 0.2 22.9
v -0.148725 0.58166 0.471204
vt 0.1 22.9
v -0.148725 0.54356 0.471204
vt 0.1 21.4
v -0.151265 0.54356 0.471204
vt 0 21.4
vt 0 16
f 69/166/2 70/167/2 83/168/2 84/169/2 85/170/2 81/171/2 

usemtl furniture_wood_grain_2
vt 0.472222 0.00401697
vt 0.0138889 0.00401697
v -0.151265 0.58166 -0.366996
vt 0.0138889 0
v -0.151265 0.58166 0.0521041
vt 0.243056 0
v -0.148725 0.58166 0.0521041
vt 0.243056 0.00200848
vt 0.472222 0.00200848
f 70/172/11 79/173/11 86/174/11 87/175/11 88/176/11 83/177/11 

usemtl FrontColor
f 70/139/4 71/140/4 78/163/4 79/164/4 

v -0.151265 0.5842 0.471204
v -0.151265 0.5842 -0.366996
f 78/128/1 71/129/1 89/130/1 90/131/1 

vt 0.2 23
vt 0.2 28.5
v -0.148725 0.7239 0.471204
vt 0.1 28.5
v -0.148725 0.6858 0.471204
vt 0.1 27
v -0.151265 0.6858 0.471204
vt 0 27
vt 0 23
f 71/178/2 72/179/2 91/180/2 92/181/2 93/182/2 89/183/2 

usemtl furniture_wood_grain_2
v -0.151265 0.7239 -0.366996
v -0.151265 0.7239 0.204504
vt 0.326389 0
v -0.148725 0.7239 0.204504
vt 0.326389 0.00200848
f 72/172/11 77/173/11 94/174/11 95/184/11 96/185/11 91/177/11 

usemtl FrontColor
f 72/141/4 73/142/4 77/162/4

vt -0.2 28.5
vt -0.2 23
vt 0 28.5
f 77/186/7 78/187/7 90/183/7 94/188/7 

usemtl furniture_wood_grain_2
vt 0.472222 0.461951
vt 0.472222 0.54229
v -0.151265 0.6858 0.242604
vt 0.347222 0.54229
vt 0.326389 0.572418
vt 0.0138889 0.572418
vt 0.0138889 0.461951
f 89/189/4 93/190/4 97/191/4 95/192/4 94/193/4 90/194/4 

vt 0.347222 0
vt 0.472222 0
v -0.148725 0.6858 0.242604
vt 0.347222 0.00200848
f 97/195/11 93/196/11 92/177/11 98/197/11 

vt 0.472222 0.572418
f 91/198/4 96/192/4 98/191/4 92/190/4 

vt 0 0.0710106
vn -1.96262e-16 0.707107 0.707107
vt 0 0.0284042
vt 0.00138889 0.0284042
vt 0.00138889 0.0710106
f 95/199/13 97/200/13 98/201/13 96/202/13 

usemtl FrontColor
vt -0.2 22.9
vt -0.2 16
vt 0 22.9
f 79/203/7 80/204/7 82/171/7 86/205/7 

usemtl furniture_wood_grain_2
vt 0.472222 0.321357
vt 0.472222 0.429815
v -0.151265 0.54356 0.0902041
vt 0.263889 0.429815
vt 0.243056 0.459943
vt 0.0138889 0.459943
vt 0.0138889 0.321357
f 81/206/4 85/207/4 99/208/4 87/209/4 86/210/4 82/211/4 

vt 0.263889 0
v -0.148725 0.54356 0.0902041
vt 0.263889 0.00200848
f 99/212/11 85/196/11 84/177/11 100/213/11 

vt 0.472222 0.459943
f 83/214/4 88/209/4 100/208/4 84/207/4 

vt 0 0.0766914
vt 0 0.0340851
vt 0.00138889 0.0340851
vt 0.00138889 0.0766914
f 87/215/13 99/216/13 100/217/13 88/218/13 

v -0.151265 0.40386 -0.100296
vt 0.159722 0
v -0.148725 0.40386 -0.100296
vt 0.159722 0.00200848
f 65/172/11 61/173/11 63/174/11 101/219/11 102/220/11 66/177/11 

vt 0.472222 0.0803393
vt 0.472222 0.289222
v -0.151265 0.36576 -0.0621959
vt 0.180556 0.289222
vt 0.159722 0.319349
vt 0.0138889 0.319349
vt 0.0138889 0.0803393
f 64/221/4 68/222/4 103/223/4 101/224/4 63/225/4 62/226/4 

vt 0.180556 0
v -0.148725 0.36576 -0.0621959
vt 0.180556 0.00200848
f 103/227/11 68/196/11 67/177/11 104/228/11 

vt 0.472222 0.319349
f 66/229/4 102/224/4 104/223/4 67/222/4 

vt 0 0.0624893
vt 0 0.019883
vt 0.00138889 0.019883
vt 0.00138889 0.0624893
f 101/230/13 103/231/13 104/232/13 102/233/13 

usemtl FrontColor
v -0.146185 0.762 -0.366996
vt 1 30
f 60/108/4 76/161/4 105/234/4

vt 19.2 29.5
vt 19.2 30
vt 0.2 30
vt 0.2 29.5
f 53/235/2 52/236/2 105/237/2 76/238/2 

v -0.146185 0.7747 -0.379696
vt 0.2 21.2132
vt 0.2 20.5061
vt 19.2 20.5061
vt 19.2 21.2132
f 106/239/13 105/240/13 52/241/13 51/242/13 

vt 0.5 30.5
f 60/108/4 105/234/4 106/243/4

vt 0.5 0.2
vt 0.5 19.2
vt 0 19.2
vt 0 0.2
f 106/244/11 51/245/11 50/246/11 60/247/11 

vt -19.2 30.5
vt -19.2 3
vt -0.2 3
vt -0.2 30.5
f 50/248/7 37/249/7 20/250/7 60/251/7 

vt -35 19.2
vt -35 0.2
f 9/252/1 10/253/1 20/247/1 37/246/1 

usemtl furniture_wood_grain_2
vt 0 -0.100601
vt 0 -0.145512
vt 0.0138889 -0.145512
vt 0.0138889 -0.100601
f 36/254/10 35/255/10 30/256/10 29/257/10 

vt 0 0.0843563
vt 0 0.305289
vt -0.0138889 0.305289
vt -0.0138889 0.0843563
f 33/258/1 36/259/1 29/260/1 28/261/1 

vt -0.430556 0.00401697
vt -0.0555556 0.00401697
vt -0.0555556 0.0241018
vt -0.430556 0.0241018
f 15/262/1 19/263/1 27/264/1 16/265/1 

vt 0.00277778 0.0718577
vt 0.00277778 0.0269466
vt 0.0166667 0.0269466
vt 0.0166667 0.0718577
f 19/266/8 18/267/8 22/268/8 27/269/8 

